<?xml version="1.0" standalone="no"?>
<svg xmlns:xlink="http://www.w3.org/1999/xlink" id="wave" style="transform:rotate(0deg); transition: 0.3s" viewBox="0 0 1440 100" version="1.1" xmlns="http://www.w3.org/2000/svg"><defs><linearGradient id="sw-gradient-0" x1="0" x2="0" y1="1" y2="0"><stop stop-color="rgba(255, 218, 218, 1)" offset="0%"/><stop stop-color="rgba(255, 218, 218, 1)" offset="100%"/></linearGradient></defs><path style="transform:translate(0, 0px); opacity:1" fill="url(#sw-gradient-0)" d="M0,10L26.7,10C53.3,10,107,10,160,16.7C213.3,23,267,37,320,45C373.3,53,427,57,480,60C533.3,63,587,67,640,68.3C693.3,70,747,70,800,60C853.3,50,907,30,960,26.7C1013.3,23,1067,37,1120,41.7C1173.3,47,1227,43,1280,46.7C1333.3,50,1387,60,1440,53.3C1493.3,47,1547,23,1600,16.7C1653.3,10,1707,20,1760,26.7C1813.3,33,1867,37,1920,33.3C1973.3,30,2027,20,2080,28.3C2133.3,37,2187,63,2240,73.3C2293.3,83,2347,77,2400,66.7C2453.3,57,2507,43,2560,40C2613.3,37,2667,43,2720,48.3C2773.3,53,2827,57,2880,50C2933.3,43,2987,27,3040,16.7C3093.3,7,3147,3,3200,1.7C3253.3,0,3307,0,3360,1.7C3413.3,3,3467,7,3520,10C3573.3,13,3627,17,3680,30C3733.3,43,3787,67,3813,78.3L3840,90L3840,100L3813.3,100C3786.7,100,3733,100,3680,100C3626.7,100,3573,100,3520,100C3466.7,100,3413,100,3360,100C3306.7,100,3253,100,3200,100C3146.7,100,3093,100,3040,100C2986.7,100,2933,100,2880,100C2826.7,100,2773,100,2720,100C2666.7,100,2613,100,2560,100C2506.7,100,2453,100,2400,100C2346.7,100,2293,100,2240,100C2186.7,100,2133,100,2080,100C2026.7,100,1973,100,1920,100C1866.7,100,1813,100,1760,100C1706.7,100,1653,100,1600,100C1546.7,100,1493,100,1440,100C1386.7,100,1333,100,1280,100C1226.7,100,1173,100,1120,100C1066.7,100,1013,100,960,100C906.7,100,853,100,800,100C746.7,100,693,100,640,100C586.7,100,533,100,480,100C426.7,100,373,100,320,100C266.7,100,213,100,160,100C106.7,100,53,100,27,100L0,100Z"/></svg>