<?xml version="1.0" standalone="no"?>
<svg xmlns:xlink="http://www.w3.org/1999/xlink" id="wave" style="transform:rotate(180deg); transition: 0.3s" viewBox="0 0 1440 200" version="1.1" xmlns="http://www.w3.org/2000/svg"><defs><linearGradient id="sw-gradient-0" x1="0" x2="0" y1="1" y2="0"><stop stop-color="rgba(255, 218, 218, 1)" offset="0%"/><stop stop-color="rgba(255, 218, 218, 1)" offset="100%"/></linearGradient></defs><path style="transform:translate(0, 0px); opacity:1" fill="url(#sw-gradient-0)" d="M0,20L26.7,16.7C53.3,13,107,7,160,23.3C213.3,40,267,80,320,83.3C373.3,87,427,53,480,43.3C533.3,33,587,47,640,60C693.3,73,747,87,800,103.3C853.3,120,907,140,960,143.3C1013.3,147,1067,133,1120,123.3C1173.3,113,1227,107,1280,86.7C1333.3,67,1387,33,1440,26.7C1493.3,20,1547,40,1600,50C1653.3,60,1707,60,1760,53.3C1813.3,47,1867,33,1920,33.3C1973.3,33,2027,47,2080,43.3C2133.3,40,2187,20,2240,10C2293.3,0,2347,0,2400,10C2453.3,20,2507,40,2560,40C2613.3,40,2667,20,2720,30C2773.3,40,2827,80,2880,93.3C2933.3,107,2987,93,3040,86.7C3093.3,80,3147,80,3200,76.7C3253.3,73,3307,67,3360,66.7C3413.3,67,3467,73,3520,70C3573.3,67,3627,53,3680,56.7C3733.3,60,3787,80,3813,90L3840,100L3840,200L3813.3,200C3786.7,200,3733,200,3680,200C3626.7,200,3573,200,3520,200C3466.7,200,3413,200,3360,200C3306.7,200,3253,200,3200,200C3146.7,200,3093,200,3040,200C2986.7,200,2933,200,2880,200C2826.7,200,2773,200,2720,200C2666.7,200,2613,200,2560,200C2506.7,200,2453,200,2400,200C2346.7,200,2293,200,2240,200C2186.7,200,2133,200,2080,200C2026.7,200,1973,200,1920,200C1866.7,200,1813,200,1760,200C1706.7,200,1653,200,1600,200C1546.7,200,1493,200,1440,200C1386.7,200,1333,200,1280,200C1226.7,200,1173,200,1120,200C1066.7,200,1013,200,960,200C906.7,200,853,200,800,200C746.7,200,693,200,640,200C586.7,200,533,200,480,200C426.7,200,373,200,320,200C266.7,200,213,200,160,200C106.7,200,53,200,27,200L0,200Z"/></svg>