<?xml version="1.0" standalone="no"?>
<svg xmlns:xlink="http://www.w3.org/1999/xlink" id="wave" style="transform:rotate(180deg); transition: 0.3s" viewBox="0 0 1440 100" version="1.1" xmlns="http://www.w3.org/2000/svg"><defs><linearGradient id="sw-gradient-0" x1="0" x2="0" y1="1" y2="0"><stop stop-color="rgba(255, 218, 218, 1)" offset="0%"/><stop stop-color="rgba(255, 218, 218, 1)" offset="100%"/></linearGradient></defs><path style="transform:translate(0, 0px); opacity:1" fill="url(#sw-gradient-0)" d="M0,80L26.7,71.7C53.3,63,107,47,160,35C213.3,23,267,17,320,16.7C373.3,17,427,23,480,30C533.3,37,587,43,640,48.3C693.3,53,747,57,800,58.3C853.3,60,907,60,960,51.7C1013.3,43,1067,27,1120,18.3C1173.3,10,1227,10,1280,15C1333.3,20,1387,30,1440,31.7C1493.3,33,1547,27,1600,26.7C1653.3,27,1707,33,1760,40C1813.3,47,1867,53,1920,56.7C1973.3,60,2027,60,2080,50C2133.3,40,2187,20,2240,16.7C2293.3,13,2347,27,2400,41.7C2453.3,57,2507,73,2560,68.3C2613.3,63,2667,37,2720,21.7C2773.3,7,2827,3,2880,13.3C2933.3,23,2987,47,3040,46.7C3093.3,47,3147,23,3200,18.3C3253.3,13,3307,27,3360,30C3413.3,33,3467,27,3520,30C3573.3,33,3627,47,3680,53.3C3733.3,60,3787,60,3813,60L3840,60L3840,100L3813.3,100C3786.7,100,3733,100,3680,100C3626.7,100,3573,100,3520,100C3466.7,100,3413,100,3360,100C3306.7,100,3253,100,3200,100C3146.7,100,3093,100,3040,100C2986.7,100,2933,100,2880,100C2826.7,100,2773,100,2720,100C2666.7,100,2613,100,2560,100C2506.7,100,2453,100,2400,100C2346.7,100,2293,100,2240,100C2186.7,100,2133,100,2080,100C2026.7,100,1973,100,1920,100C1866.7,100,1813,100,1760,100C1706.7,100,1653,100,1600,100C1546.7,100,1493,100,1440,100C1386.7,100,1333,100,1280,100C1226.7,100,1173,100,1120,100C1066.7,100,1013,100,960,100C906.7,100,853,100,800,100C746.7,100,693,100,640,100C586.7,100,533,100,480,100C426.7,100,373,100,320,100C266.7,100,213,100,160,100C106.7,100,53,100,27,100L0,100Z"/></svg>