<?xml version="1.0" standalone="no"?>
<svg xmlns:xlink="http://www.w3.org/1999/xlink" id="wave" style="transform:rotate(180deg); transition: 0.3s" viewBox="0 0 1440 140" version="1.1" xmlns="http://www.w3.org/2000/svg"><defs><linearGradient id="sw-gradient-0" x1="0" x2="0" y1="1" y2="0"><stop stop-color="rgba(255, 218, 218, 1)" offset="0%"/><stop stop-color="rgba(255, 218, 218, 1)" offset="100%"/></linearGradient></defs><path style="transform:translate(0, 0px); opacity:1" fill="url(#sw-gradient-0)" d="M0,28L26.7,30.3C53.3,33,107,37,160,53.7C213.3,70,267,98,320,91C373.3,84,427,42,480,42C533.3,42,587,84,640,95.7C693.3,107,747,89,800,84C853.3,79,907,89,960,79.3C1013.3,70,1067,42,1120,35C1173.3,28,1227,42,1280,56C1333.3,70,1387,84,1440,88.7C1493.3,93,1547,89,1600,91C1653.3,93,1707,103,1760,105C1813.3,107,1867,103,1920,105C1973.3,107,2027,117,2080,114.3C2133.3,112,2187,98,2240,98C2293.3,98,2347,112,2400,116.7C2453.3,121,2507,117,2560,100.3C2613.3,84,2667,56,2720,53.7C2773.3,51,2827,75,2880,81.7C2933.3,89,2987,79,3040,65.3C3093.3,51,3147,33,3200,37.3C3253.3,42,3307,70,3360,70C3413.3,70,3467,42,3520,32.7C3573.3,23,3627,33,3680,32.7C3733.3,33,3787,23,3813,18.7L3840,14L3840,140L3813.3,140C3786.7,140,3733,140,3680,140C3626.7,140,3573,140,3520,140C3466.7,140,3413,140,3360,140C3306.7,140,3253,140,3200,140C3146.7,140,3093,140,3040,140C2986.7,140,2933,140,2880,140C2826.7,140,2773,140,2720,140C2666.7,140,2613,140,2560,140C2506.7,140,2453,140,2400,140C2346.7,140,2293,140,2240,140C2186.7,140,2133,140,2080,140C2026.7,140,1973,140,1920,140C1866.7,140,1813,140,1760,140C1706.7,140,1653,140,1600,140C1546.7,140,1493,140,1440,140C1386.7,140,1333,140,1280,140C1226.7,140,1173,140,1120,140C1066.7,140,1013,140,960,140C906.7,140,853,140,800,140C746.7,140,693,140,640,140C586.7,140,533,140,480,140C426.7,140,373,140,320,140C266.7,140,213,140,160,140C106.7,140,53,140,27,140L0,140Z"/></svg>